{
	"accessors" : 
	[
		{
			"bufferView" : 2,
			"byteOffset" : 0,
			"componentType" : 5126,
			"count" : 12,
			"max" : 
			[
				1,
				1,
				1,
				1
			],
			"min" : 
			[
				1,
				1,
				1,
				1
			],
			"name" : "accessor_color_m0-PolyGem25_-23758",
			"type" : "VEC4"
		},
		{
			"bufferView" : 2,
			"byteOffset" : 192,
			"componentType" : 5126,
			"count" : 288,
			"max" : 
			[
				1,
				1,
				1,
				1
			],
			"min" : 
			[
				0.8751375675201416,
				0.1219857111573219,
				0.2932161688804626,
				1
			],
			"name" : "accessor_color_m1-PolyPaper7_-23756",
			"type" : "VEC4"
		},
		{
			"bufferView" : 0,
			"byteOffset" : 0,
			"componentType" : 5123,
			"count" : 12,
			"max" : 
			[
				11
			],
			"min" : 
			[
				0
			],
			"name" : "accessor_indices_0_m0-PolyGem25_-23758",
			"type" : "SCALAR"
		},
		{
			"bufferView" : 0,
			"byteOffset" : 24,
			"componentType" : 5123,
			"count" : 432,
			"max" : 
			[
				287
			],
			"min" : 
			[
				0
			],
			"name" : "accessor_indices_0_m1-PolyPaper7_-23756",
			"type" : "SCALAR"
		},
		{
			"bufferView" : 1,
			"byteOffset" : 144,
			"componentType" : 5126,
			"count" : 12,
			"max" : 
			[
				0.5512922,
				-0.03063782,
				0.8337494
			],
			"min" : 
			[
				-0.8549266,
				-0.2159937,
				-0.5190360000000001
			],
			"name" : "accessor_normal_m0-PolyGem25_-23758",
			"type" : "VEC3"
		},
		{
			"bufferView" : 1,
			"byteOffset" : 3744,
			"componentType" : 5126,
			"count" : 288,
			"max" : 
			[
				0.883783,
				0.9751291,
				0.8872951
			],
			"min" : 
			[
				-0.8872936,
				-0.9751291,
				-0.883783
			],
			"name" : "accessor_normal_m1-PolyPaper7_-23756",
			"type" : "VEC3"
		},
		{
			"bufferView" : 1,
			"byteOffset" : 0,
			"componentType" : 5126,
			"count" : 12,
			"max" : 
			[
				-0.7619439,
				1.333884,
				0.4719478
			],
			"min" : 
			[
				-0.9208037,
				1.198426,
				0.3080299
			],
			"name" : "accessor_position_m0-PolyGem25_-23758",
			"type" : "VEC3"
		},
		{
			"bufferView" : 1,
			"byteOffset" : 288,
			"componentType" : 5126,
			"count" : 288,
			"max" : 
			[
				-0.7492981,
				1.350117,
				0.4719478
			],
			"min" : 
			[
				-0.9208037,
				1.198426,
				0.3035088
			],
			"name" : "accessor_position_m1-PolyPaper7_-23756",
			"type" : "VEC3"
		}
	],
	"asset" : 
	{
		"copyright" : "Unknown",
		"generator" : "glTF 1-to-2 Upgrader for Google Blocks",
		"version" : "2.0"
	},
	"bufferViews" : 
	[
		{
			"buffer" : 0,
			"byteLength" : 888,
			"byteOffset" : 0,
			"name" : "ushortBufferView",
			"target" : 34963
		},
		{
			"buffer" : 0,
			"byteLength" : 7200,
			"byteOffset" : 888,
			"byteStride" : 12,
			"name" : "vec3BufferView",
			"target" : 34962
		},
		{
			"buffer" : 0,
			"byteLength" : 4800,
			"byteOffset" : 8088,
			"byteStride" : 16,
			"name" : "vec4BufferView",
			"target" : 34962
		}
	],
	"buffers" : 
	[
		{
			"byteLength" : 12888,
			"name" : "model",
			"uri" : "model.bin"
		}
	],
	"materials" : 
	[
		{
			"alphaMode" : "OPAQUE",
			"doubleSided" : false,
			"name" : "BlocksPaper",
			"pbrMetallicRoughness" : 
			{
				"baseColorFactor" : 
				[
					1,
					1,
					1,
					1
				],
				"metallicFactor" : 0,
				"roughnessFactor" : 0.6
			}
		},
		{
			"alphaMode" : "BLEND",
			"doubleSided" : false,
			"name" : "BlocksGlass",
			"pbrMetallicRoughness" : 
			{
				"baseColorFactor" : 
				[
					0.2,
					0.2,
					1,
					0.3
				],
				"metallicFactor" : 1,
				"roughnessFactor" : 0.4
			}
		},
		{
			"alphaMode" : "OPAQUE",
			"doubleSided" : true,
			"name" : "BlocksGem",
			"pbrMetallicRoughness" : 
			{
				"baseColorFactor" : 
				[
					1,
					0.4,
					1,
					1
				],
				"metallicFactor" : 0,
				"roughnessFactor" : 0.1
			}
		}
	],
	"meshes" : 
	[
		{
			"name" : "mesh_m0-PolyGem25_-23758",
			"primitives" : 
			[
				{
					"attributes" : 
					{
						"COLOR_0" : 0,
						"NORMAL" : 4,
						"POSITION" : 6
					},
					"indices" : 2,
					"material" : 2,
					"mode" : 4
				}
			]
		},
		{
			"name" : "mesh_m1-PolyPaper7_-23756",
			"primitives" : 
			[
				{
					"attributes" : 
					{
						"COLOR_0" : 1,
						"NORMAL" : 5,
						"POSITION" : 7
					},
					"indices" : 3,
					"material" : 0,
					"mode" : 4
				}
			]
		}
	],
	"nodes" : 
	[
		{
			"matrix" : 
			[
				1,
				0,
				0,
				0,
				0,
				1,
				0,
				0,
				0,
				0,
				1,
				0,
				0,
				0,
				0,
				1
			],
			"mesh" : 1,
			"name" : "node_MeshObject-1729320768-PolyPaper7"
		},
		{
			"matrix" : 
			[
				1,
				0,
				0,
				0,
				0,
				1,
				0,
				0,
				0,
				0,
				1,
				0,
				0,
				0,
				0,
				1
			],
			"mesh" : 0,
			"name" : "node_MeshObject1757514176-PolyGem25"
		}
	],
	"scene" : 0,
	"scenes" : 
	[
		{
			"extras" : {},
			"name" : "defaultScene",
			"nodes" : 
			[
				1,
				0
			]
		}
	]
}